<?xml version="1.0" standalone="no"?>
<!DOCTYPE svg PUBLIC "-//W3C//DTD SVG 20010904//EN"
 "http://www.w3.org/TR/2001/REC-SVG-20010904/DTD/svg10.dtd">
<svg version="1.0" xmlns="http://www.w3.org/2000/svg"
 width="500.000000pt" height="500.000000pt" viewBox="0 0 500.000000 500.000000"
 preserveAspectRatio="xMidYMid meet">
<metadata>
Created by potrace 1.14, written by Peter Selinger 2001-2017
</metadata>
<g transform="translate(0.000000,500.000000) scale(0.100000,-0.100000)"
fill="#000000" stroke="none">
<path d="M2052 3880 c-21 -19 -34 -56 -47 -132 -4 -20 -17 -45 -28 -56 -28
-24 -195 -67 -230 -58 -14 3 -52 33 -85 66 -38 39 -67 60 -82 60 -26 0 -142
-61 -177 -93 -30 -27 -29 -65 2 -157 l25 -74 -94 -94 -94 -94 -79 26 c-91 30
-110 32 -141 11 -33 -24 -102 -148 -102 -185 0 -26 12 -43 71 -99 l72 -68 -21
-64 c-12 -35 -26 -92 -33 -126 -8 -42 -17 -64 -28 -67 -9 -2 -50 -12 -92 -21
-102 -21 -113 -34 -117 -139 -5 -135 13 -155 169 -186 55 -11 57 -12 63 -48 4
-20 19 -77 33 -126 l27 -89 -72 -67 c-57 -54 -72 -74 -72 -96 0 -35 72 -167
102 -188 31 -22 50 -20 141 10 l78 26 94 -95 95 -94 -25 -73 c-42 -124 -34
-146 75 -210 97 -57 111 -55 193 31 l68 72 87 -26 c48 -14 105 -29 127 -34
l39 -9 16 -79 c9 -44 22 -90 28 -102 17 -31 82 -47 166 -40 94 8 113 27 135
138 l17 84 79 21 c44 11 101 27 127 34 l47 14 66 -72 c52 -56 73 -72 94 -72
15 0 63 21 107 48 103 61 107 74 70 188 l-28 86 62 63 c91 92 87 95 -105 95
l-155 0 -83 -45 c-109 -59 -243 -101 -361 -114 -383 -43 -771 168 -943 514
-70 141 -97 259 -97 425 1 259 89 475 272 662 120 123 251 202 419 250 107 31
371 33 478 4 91 -25 188 -65 248 -103 l49 -30 -92 -6 c-139 -9 -137 -8 -255
-240 l-101 -198 -21 45 c-21 43 -24 45 -78 51 -64 8 -165 -1 -179 -15 -14 -14
23 -119 46 -131 10 -5 54 -15 97 -21 l79 -12 -100 -115 c-56 -64 -107 -132
-116 -151 -11 -27 -15 -83 -16 -255 -1 -216 -1 -221 24 -270 20 -41 32 -52 64
-63 31 -10 250 -12 1035 -10 l996 3 32 23 c56 40 67 101 60 332 -4 107 -11
211 -17 230 -6 20 -53 85 -114 155 l-104 120 74 12 c107 17 114 20 136 69 36
82 18 101 -92 103 -110 1 -154 -20 -167 -82 -5 -25 -19 -1 -107 175 -84 169
-106 206 -133 221 -40 23 -207 36 -450 37 -122 0 -163 3 -163 12 0 7 -27 40
-60 73 l-60 61 25 74 c29 85 31 117 10 147 -19 27 -155 103 -185 103 -14 0
-47 -25 -89 -65 -40 -38 -76 -65 -89 -65 -47 0 -242 60 -242 75 0 2 -7 36 -15
77 -23 109 -35 118 -160 118 -87 0 -104 -3 -123 -20z m1352 -655 c121 -4 189
-10 213 -20 31 -13 42 -31 129 -209 52 -108 94 -198 94 -201 0 -3 -346 -5
-770 -5 -423 0 -770 2 -770 5 0 3 45 95 100 205 82 164 105 203 127 211 30 11
487 28 618 23 44 -2 160 -6 259 -9z m-1164 -822 c218 -30 223 -32 255 -116 31
-82 33 -81 -192 -73 -158 5 -200 10 -214 22 -22 20 -69 136 -69 169 0 14 6 25
13 25 6 0 100 -12 207 -27z m1880 6 c0 -29 -49 -150 -69 -171 -14 -15 -45 -18
-213 -24 -170 -6 -198 -5 -203 8 -9 23 34 127 58 143 20 13 321 62 395 64 26
1 32 -3 32 -20z m-601 -98 c7 -5 13 -19 13 -32 0 -36 -62 -231 -80 -251 -14
-17 -45 -18 -378 -18 -199 0 -369 3 -378 6 -9 4 -32 55 -56 129 -32 99 -38
129 -30 149 l10 26 442 0 c244 0 449 -4 457 -9z m-1106 -219 c37 -32 5 -102
-48 -102 -24 0 -65 31 -65 49 0 26 22 62 42 70 26 9 45 5 71 -17z m1414 -8
c33 -52 -25 -112 -82 -86 -46 21 -41 93 8 111 30 11 56 2 74 -25z"/>
<path d="M2640 2245 c0 -13 54 -15 430 -15 376 0 430 2 430 15 0 13 -54 15
-430 15 -376 0 -430 -2 -430 -15z"/>
<path d="M2666 2165 c5 -13 60 -15 404 -15 344 0 399 2 404 15 5 13 -44 15
-404 15 -360 0 -409 -2 -404 -15z"/>
<path d="M2692 2093 c3 -17 29 -18 378 -18 349 0 375 1 378 18 3 16 -20 17
-378 17 -358 0 -381 -1 -378 -17z"/>
<path d="M4211 2133 c-1 -110 -16 -172 -51 -215 -36 -44 -86 -58 -204 -58
l-86 0 0 -64 c0 -59 2 -66 31 -90 29 -25 36 -26 149 -26 111 0 121 2 147 24
l28 24 3 219 c2 128 -1 229 -7 243 -8 20 -10 8 -10 -57z"/>
<path d="M1918 2187 c-5 -10 -8 -115 -8 -232 0 -212 0 -214 24 -242 24 -28 26
-28 150 -31 l126 -4 30 30 c27 27 30 37 30 90 l0 59 -115 5 c-134 5 -156 15
-194 93 -20 38 -26 70 -30 149 -4 60 -9 94 -13 83z"/>
</g>
</svg>
